<svg version="1.1" id="Layer_1" xmlns="http://www.w3.org/2000/svg" xmlns:xlink="http://www.w3.org/1999/xlink" x="0px" y="0px"
	 width="100%" viewBox="0 0 2000 2000" enable-background="new 0 0 2000 2000" xml:space="preserve">
<path fill="#FEFEFF" opacity="1.000000" stroke="none" 
	d="
M1073.000000,2001.000000 
	C716.833313,2001.000000 361.166656,2000.993164 5.500026,2001.093018 
	C1.750913,2001.094116 0.906737,2000.249023 0.907281,1996.500000 
	C1.003694,1332.833374 1.003694,669.166687 0.907281,5.500014 
	C0.906737,1.751003 1.751000,0.906735 5.500013,0.907280 
	C669.166687,1.003704 1332.833374,1.003704 1996.500000,0.907280 
	C2000.249023,0.906735 2001.093262,1.751001 2001.092651,5.500013 
	C2000.996338,669.166687 2000.996216,1332.833374 2001.092651,1996.500000 
	C2001.093140,2000.249023 2000.249146,2001.094238 1996.500000,2001.093018 
	C1688.833374,2000.991943 1381.166626,2001.000000 1073.000000,2001.000000 
z"/>
<path fill="#D3DDF8" opacity="1.000000" stroke="none" 
	d="
M1191.658325,738.581116 
	C1191.984985,898.271912 1192.009399,1057.704346 1191.982178,1217.136841 
	C1191.979126,1235.389771 1176.861572,1252.799072 1158.705566,1256.051270 
	C1154.749390,1256.759888 1150.823486,1257.009033 1146.829346,1257.007202 
	C1096.850464,1256.982910 1046.871582,1256.993530 996.421021,1257.002441 
	C993.711609,1257.168457 993.547852,1255.190186 992.806824,1253.879639 
	C990.649536,1250.064819 988.758972,1246.103638 986.367920,1242.024170 
	C984.822571,1238.023560 984.822571,1238.023560 982.998230,1240.304688 
	C982.635742,1241.244141 982.333984,1241.848755 981.880615,1242.771729 
	C981.602783,1243.294800 981.483032,1243.502563 981.164062,1244.015503 
	C978.804443,1247.422363 976.743958,1250.587036 974.812683,1253.838257 
	C973.625427,1255.836914 972.300110,1257.730103 969.353516,1258.321289 
	C965.932190,1258.732788 962.930847,1258.626831 959.933960,1258.626953 
	C753.858765,1258.631958 547.783630,1258.635254 341.708466,1258.602661 
	C337.755432,1258.602051 333.686798,1259.263550 329.453735,1257.182617 
	C298.683319,1256.973511 268.365540,1257.130615 238.050827,1256.892456 
	C222.733521,1256.772217 210.448227,1250.204468 201.954620,1237.325928 
	C197.651459,1230.801147 195.999069,1223.347778 195.999207,1215.537354 
	C196.001862,1064.620972 195.999695,913.704529 196.002609,762.788147 
	C196.003128,735.803162 196.021851,708.818237 196.058975,681.357971 
	C197.559097,679.527283 199.410599,679.472961 201.247650,679.406555 
	C203.579727,679.322205 205.913635,679.362732 208.246750,679.362732 
	C518.399109,679.361328 828.551392,679.360596 1138.703735,679.370544 
	C1142.032471,679.370667 1145.371948,679.168457 1149.127441,679.794434 
	C1152.583252,681.183289 1151.311035,683.508850 1150.738525,685.433228 
	C1148.980103,691.344849 1147.491577,697.309998 1146.672974,703.423706 
	C1144.714355,718.052734 1155.389038,733.380188 1169.131348,735.375793 
	C1175.211426,736.258728 1181.321533,737.016418 1187.443604,737.612366 
	C1188.766602,737.741028 1190.108521,737.716919 1191.658325,738.581116 
z"/>
<path fill="#000000" opacity="1.000000" stroke="none" 
	d="
M1601.532715,842.916992 
	C1609.598511,862.399292 1614.946411,882.431396 1619.973877,902.540466 
	C1634.580688,960.965393 1642.928711,1020.264038 1645.234253,1080.473022 
	C1648.110229,1155.579102 1641.027954,1229.575806 1622.211182,1302.407593 
	C1621.385864,1305.601685 1619.898193,1307.150879 1616.978638,1308.205200 
	C1609.494385,1310.908081 1602.098145,1313.854858 1594.356445,1316.897827 
	C1592.321289,1319.097534 1589.884399,1319.740356 1587.508423,1320.483643 
	C1554.872070,1330.695068 1521.453979,1336.966797 1487.455322,1340.293457 
	C1484.810059,1340.552246 1482.142700,1340.475220 1479.041016,1340.562500 
	C1475.529785,1341.624634 1472.351807,1341.593018 1469.187866,1341.552612 
	C1452.703735,1341.342407 1436.195679,1342.276489 1419.297852,1340.504761 
	C1385.088257,1337.752441 1352.150391,1331.112061 1320.223389,1319.679199 
	C1318.970459,1319.230713 1317.723999,1318.756836 1316.578003,1317.344727 
	C1298.135376,1309.706665 1280.271973,1301.749268 1263.134399,1292.175171 
	C1259.619629,1290.211548 1258.744629,1288.140259 1259.153076,1284.378052 
	C1264.056030,1239.215454 1269.140503,1194.072388 1275.166504,1149.046509 
	C1287.168579,1059.366943 1300.572510,969.915039 1321.099976,881.702026 
	C1324.787720,865.854370 1329.245361,850.184692 1333.471558,834.466248 
	C1333.754639,833.413757 1333.271118,831.614685 1335.540527,831.338623 
	C1337.107788,831.694153 1337.863281,832.584961 1338.601318,833.493958 
	C1352.476562,850.585083 1371.021118,860.318665 1391.572754,866.644104 
	C1411.662354,872.827454 1432.333740,873.997803 1453.270264,873.759094 
	C1491.652344,873.321533 1528.540649,865.022522 1565.012939,854.047424 
	C1575.063232,851.023193 1585.060425,847.860107 1594.872314,844.121704 
	C1596.879272,843.357056 1598.913940,842.514038 1601.532715,842.916992 
z"/>
<path fill="#F5F5FF" opacity="1.000000" stroke="none" 
	d="
M329.004395,1257.354126 
	C332.053741,1256.979980 335.107666,1256.980347 338.161560,1256.980347 
	C546.630554,1256.980469 755.099548,1256.980469 963.568542,1256.981934 
	C965.901428,1256.982056 968.234253,1257.003784 971.071411,1257.038574 
	C972.220215,1259.412964 970.866150,1261.252930 969.923950,1263.150024 
	C956.629028,1289.917725 948.095520,1318.119507 944.657898,1347.807861 
	C943.124939,1361.047363 942.416199,1374.315186 946.291931,1387.369385 
	C948.391296,1394.440308 952.044067,1400.075928 959.913818,1402.510254 
	C961.635803,1408.689819 960.382263,1414.637939 960.028992,1420.526611 
	C959.481445,1429.651611 959.059204,1438.788208 958.389160,1447.907471 
	C958.328308,1448.735962 958.427429,1449.578491 958.331543,1450.403442 
	C958.145569,1452.002808 958.533813,1454.251221 956.663574,1454.695801 
	C954.784607,1455.142578 954.061951,1452.985718 953.325073,1451.589966 
	C949.063721,1443.518921 942.637817,1437.715210 934.828674,1433.161987 
	C898.538452,1412.001709 859.861206,1397.896362 817.892761,1393.613037 
	C801.961731,1391.987183 786.008545,1391.929443 770.124695,1394.446289 
	C769.136658,1394.602905 768.145081,1394.733521 767.198364,1395.069214 
	C766.418884,1395.345581 765.627563,1395.608887 764.865723,1396.357056 
	C766.545288,1396.932007 768.227783,1396.497192 770.197937,1396.925293 
	C786.090271,1400.652344 799.521057,1408.726074 813.005188,1416.732422 
	C828.614197,1426.000732 843.936890,1435.842407 861.090698,1442.183716 
	C877.337036,1448.189819 894.031555,1450.164551 911.188232,1447.293091 
	C918.498535,1446.069580 925.380554,1443.669067 931.532227,1439.404541 
	C932.897400,1438.458252 934.282532,1437.504639 936.403564,1437.199219 
	C946.651001,1441.440918 951.425110,1449.870239 954.697388,1459.329956 
	C956.656982,1464.995117 957.477661,1470.952393 957.476562,1476.989258 
	C957.472046,1502.088379 957.496826,1527.187500 957.441162,1552.286499 
	C957.435486,1554.860107 958.432129,1558.688599 955.815186,1559.554199 
	C953.056335,1560.466797 952.232422,1556.427246 950.559875,1554.562256 
	C949.899048,1553.825439 949.403870,1552.939575 948.684814,1551.726562 
	C945.591309,1541.710205 939.551208,1533.884644 933.313538,1526.320190 
	C916.033203,1505.364258 896.606201,1486.735352 872.863586,1473.119751 
	C842.735657,1455.842163 811.067810,1442.501831 776.578979,1436.830444 
	C770.804565,1435.880737 764.594971,1434.625610 759.256836,1439.587891 
	C757.039124,1443.618042 761.223633,1442.756958 762.553833,1444.433472 
	C790.142578,1472.722656 822.074097,1494.485840 856.211975,1513.261963 
	C885.003723,1529.097778 914.948425,1542.329712 946.272095,1553.425903 
	C955.146179,1561.434814 957.714783,1571.672363 958.269348,1582.682495 
	C958.348938,1584.262329 958.505249,1586.354248 956.614380,1586.959229 
	C955.040161,1587.462891 954.053833,1585.759155 952.962708,1584.795532 
	C952.095276,1584.029297 951.257935,1583.224731 950.359924,1581.948730 
	C948.477722,1577.333618 945.731384,1573.801270 942.378723,1570.737183 
	C928.709534,1558.244141 913.286682,1550.909912 894.069092,1552.070068 
	C877.104309,1553.094360 861.237732,1557.126831 846.414978,1565.293213 
	C842.043030,1567.701904 837.801575,1570.431641 835.356079,1575.532837 
	C833.497803,1578.544312 834.326904,1579.975342 837.748108,1580.455322 
	C857.366882,1591.012207 878.179321,1594.379883 899.729187,1593.464966 
	C911.985596,1592.944580 924.180176,1591.257568 936.137939,1588.256958 
	C939.999390,1587.287964 943.821106,1586.139038 948.178467,1585.475586 
	C951.022217,1585.505615 952.668152,1586.994629 953.623779,1588.931641 
	C956.026489,1593.802246 958.259949,1598.774780 957.962036,1604.699585 
	C948.371277,1604.910889 939.303589,1607.199829 930.148254,1608.405151 
	C920.939514,1609.617432 911.694275,1609.882812 902.492310,1610.875122 
	C885.609009,1612.695679 868.604614,1612.261719 851.656311,1611.911865 
	C836.441650,1611.597778 821.321289,1609.738647 806.167786,1608.264771 
	C783.187683,1606.029419 760.719055,1601.447266 738.405029,1595.962769 
	C718.302734,1591.021973 698.526245,1584.973633 679.090576,1577.702148 
	C656.101013,1569.101074 633.728638,1559.195679 611.964905,1547.923462 
	C591.215576,1537.176758 570.950317,1525.534424 551.664856,1512.313721 
	C530.893555,1498.074463 510.958649,1482.747925 491.723846,1466.442627 
	C474.951447,1452.224609 459.009399,1437.170898 443.940613,1421.239990 
	C430.852722,1407.403442 418.375397,1392.987793 406.329773,1378.183350 
	C396.476837,1366.073730 387.296295,1353.505859 378.383057,1340.744263 
	C366.188599,1323.284790 354.721680,1305.351074 344.223297,1286.780151 
	C338.831360,1277.242310 333.737213,1267.592529 329.004395,1257.354126 
z"/>
<path fill="#9EC68A" opacity="1.000000" stroke="none" 
	d="
M1601.858887,842.709900 
	C1565.642090,856.432190 1528.710083,867.320374 1490.320557,872.518311 
	C1457.103394,877.015930 1423.944824,877.746948 1391.390747,867.998474 
	C1369.476196,861.436157 1349.804688,851.138062 1335.923096,831.700256 
	C1338.452393,817.323792 1341.616821,803.396179 1343.468750,789.222534 
	C1344.141235,784.076294 1344.022583,778.934387 1344.295654,773.314819 
	C1346.448853,772.284363 1348.249268,773.269287 1350.075562,774.048645 
	C1378.166626,786.036560 1407.402710,793.810486 1437.717896,797.310669 
	C1466.934692,800.684143 1495.624878,798.232666 1523.338379,787.865112 
	C1535.901855,783.165161 1547.411987,776.461914 1557.896973,768.057434 
	C1558.779663,767.349792 1559.870728,766.758362 1560.056885,765.111084 
	C1557.780884,765.011475 1556.602417,766.776672 1555.177734,767.866760 
	C1534.073242,784.013733 1510.096680,792.652832 1483.816284,795.372925 
	C1450.136475,798.858887 1417.382568,794.056824 1385.091187,784.654968 
	C1371.297241,780.638733 1357.938843,775.531006 1344.538208,769.417603 
	C1338.130981,768.695679 1335.068604,764.205444 1332.385498,759.672119 
	C1325.721436,748.412354 1325.360718,735.843872 1326.319214,723.373779 
	C1327.644775,706.131592 1331.418213,689.286987 1336.789307,672.457275 
	C1343.668335,661.265259 1348.676147,649.562317 1354.932129,637.447205 
	C1351.566162,638.332947 1351.234009,640.342651 1350.442749,641.861389 
	C1346.592163,649.250916 1342.999023,656.771301 1339.230835,664.203125 
	C1338.335938,665.968079 1337.698120,667.927795 1335.609863,669.235107 
	C1329.052979,666.322815 1324.355347,661.434692 1319.700562,656.549744 
	C1313.855347,650.415527 1309.302612,643.294250 1304.506592,635.922668 
	C1303.639648,634.624573 1303.038086,633.587769 1302.478271,632.126404 
	C1302.121704,629.685608 1303.513062,628.416504 1304.747070,627.076477 
	C1325.776733,604.238770 1345.945557,580.685120 1364.303223,555.618835 
	C1365.871826,553.476929 1367.272705,551.211731 1369.249268,548.946777 
	C1370.802368,547.883362 1372.338989,547.376282 1373.411865,545.687683 
	C1378.725342,541.524536 1383.170166,536.800781 1389.103760,533.467407 
	C1399.540771,533.873474 1409.291138,531.380981 1419.186890,530.259399 
	C1421.001465,530.053772 1422.808472,529.738586 1424.628052,529.535706 
	C1430.988159,528.826538 1431.821655,529.868652 1429.381714,536.022766 
	C1427.221313,541.471924 1425.777832,547.071045 1424.854614,552.853455 
	C1422.915039,565.000610 1430.062256,572.215393 1442.268799,570.245667 
	C1445.390747,569.742004 1448.476074,569.043091 1451.527832,568.195862 
	C1458.658203,566.216370 1459.190430,566.341675 1463.362183,572.694580 
	C1468.785278,580.953186 1476.189697,586.143311 1486.032471,587.431335 
	C1492.552734,588.284607 1499.020874,587.611389 1505.203247,585.264038 
	C1530.394043,575.699524 1548.648682,558.709290 1559.733765,534.097900 
	C1560.212769,533.034302 1560.638916,531.949585 1561.699219,530.778687 
	C1564.393799,529.346863 1566.538208,530.333618 1568.646729,531.337280 
	C1581.985840,537.687317 1596.211304,540.787598 1611.111084,542.929016 
	C1613.513672,543.502380 1615.502808,544.094360 1617.916260,544.577576 
	C1619.356323,544.693176 1620.377808,544.882629 1621.599487,545.701233 
	C1655.846191,555.635620 1674.518799,582.027588 1691.924805,609.850464 
	C1707.132568,634.159119 1714.743164,661.435486 1722.907227,688.507568 
	C1725.402222,696.781006 1727.715820,705.124146 1730.613037,713.256958 
	C1733.256470,720.677185 1734.670776,727.889709 1730.866699,735.688721 
	C1730.194702,740.667786 1727.885132,744.519958 1725.359619,748.222900 
	C1712.186035,767.538757 1693.614258,777.352722 1670.546997,779.168823 
	C1669.216064,779.273621 1667.882202,779.259094 1666.365845,778.301147 
	C1662.195435,778.659119 1660.203247,776.951782 1658.562012,773.367615 
	C1649.868286,754.379822 1640.866089,735.533264 1631.992065,716.627747 
	C1631.503784,715.587646 1631.207397,714.457581 1630.842529,712.963379 
	C1625.162964,699.964539 1616.595947,689.113586 1609.416138,677.420959 
	C1607.035522,673.543884 1605.215210,669.183472 1601.176025,665.689148 
	C1600.538940,668.600403 1602.286011,670.086426 1603.319580,671.732361 
	C1610.817627,683.672974 1618.739014,695.343628 1626.076416,707.387085 
	C1626.933350,708.793518 1627.996948,710.115967 1628.123535,712.196228 
	C1624.502930,723.803955 1618.971558,734.239929 1614.359619,745.060547 
	C1608.106689,759.731506 1601.834106,774.403198 1595.105103,788.858154 
	C1591.829468,795.894897 1591.245117,802.747803 1593.253052,810.092102 
	C1596.184937,820.816223 1598.966187,831.581543 1601.858887,842.709900 
z"/>
<path fill="#7684F1" opacity="1.000000" stroke="none" 
	d="
M1151.168213,680.960815 
	C1142.313843,681.027832 1133.815674,681.001892 1125.317505,681.001831 
	C817.546509,681.000183 509.775543,681.001038 202.004547,681.000183 
	C200.338364,681.000183 198.672195,680.980835 196.545898,680.926636 
	C196.059036,666.717224 195.850906,652.549194 196.051422,638.386963 
	C196.302307,620.665833 211.544098,603.672424 229.224747,600.990845 
	C233.179382,600.391052 237.140701,600.091553 241.156906,600.091797 
	C543.650513,600.110779 846.144104,600.093018 1148.637695,600.081177 
	C1168.793579,600.080383 1183.480835,610.395508 1190.145874,629.513550 
	C1190.617188,631.990295 1188.817993,632.678528 1187.668823,633.768799 
	C1184.175659,637.082703 1180.536499,640.291199 1176.793823,643.256531 
	C1165.785278,651.978577 1160.224365,664.207397 1154.385376,676.324036 
	C1153.598145,677.957642 1153.192993,679.808533 1151.168213,680.960815 
z"/>
<path fill="#D3DDF8" opacity="1.000000" stroke="none" 
	d="
M958.255249,247.303467 
	C976.741577,227.424347 998.693787,213.855179 1024.794800,207.653137 
	C1063.955322,198.347885 1100.525269,205.022858 1133.282104,228.353729 
	C1162.681519,249.293335 1180.876221,277.961761 1186.997681,313.799286 
	C1192.341064,345.081909 1186.798706,374.400085 1171.156128,402.062073 
	C1165.683350,411.740143 1159.102539,420.448761 1151.217285,428.005920 
	C1145.252808,433.722168 1143.996582,440.231781 1145.188110,447.519714 
	C1147.829224,463.674347 1150.914795,479.756165 1153.779907,495.874634 
	C1154.097412,497.660614 1154.808228,500.048859 1153.478271,501.136261 
	C1151.767212,502.535431 1150.260376,500.146454 1148.829346,499.326263 
	C1130.400146,488.763672 1112.071533,478.025543 1093.656128,467.438568 
	C1090.647827,465.709106 1087.518066,464.787384 1083.696167,465.503754 
	C1051.958740,471.452148 1021.741821,467.568329 993.123291,451.847229 
	C962.676819,435.121887 942.432007,410.060364 931.094910,377.611115 
	C924.523438,358.802429 923.681641,339.339783 925.819763,319.613556 
	C928.686279,293.168243 939.268127,270.205627 956.329163,250.030533 
	C956.968811,249.274139 957.453857,248.386963 958.255249,247.303467 
z"/>
<path fill="#BB6F4D" opacity="1.000000" stroke="none" 
	d="
M1478.389160,1339.854980 
	C1506.869141,1337.303223 1534.783569,1333.214722 1562.179321,1326.025269 
	C1572.613159,1323.287109 1582.920532,1320.066895 1593.665771,1317.079102 
	C1593.364014,1338.036133 1592.520752,1358.977051 1592.049683,1379.926270 
	C1591.657104,1397.391479 1592.617554,1414.833252 1593.543945,1432.277466 
	C1594.596802,1452.101807 1592.643555,1471.843628 1590.627197,1491.523071 
	C1587.222046,1524.756958 1582.582397,1557.839722 1577.023804,1590.783081 
	C1572.491211,1617.646729 1567.709839,1644.468506 1562.951904,1671.713135 
	C1560.330078,1676.119751 1556.542114,1678.886230 1552.998413,1681.838379 
	C1545.331055,1688.225586 1537.284180,1694.087036 1528.195923,1698.369141 
	C1526.088379,1699.362061 1523.949341,1700.256226 1521.732910,1700.971191 
	C1507.586060,1705.535156 1498.100586,1699.221069 1496.786133,1684.347656 
	C1496.553467,1681.713623 1496.916504,1679.017700 1495.850586,1676.036011 
	C1495.003906,1666.148926 1494.435425,1656.694824 1494.359375,1647.184692 
	C1494.115112,1616.720581 1492.781006,1586.278931 1492.267700,1555.814697 
	C1491.673218,1520.530029 1488.683838,1485.362427 1485.678833,1450.197266 
	C1483.014893,1419.023804 1480.722290,1387.813599 1478.312012,1356.616089 
	C1477.890381,1351.156372 1476.630127,1345.724487 1478.389160,1339.854980 
z"/>
<path fill="#BB6F4D" opacity="1.000000" stroke="none" 
	d="
M1316.332031,1317.473633 
	C1337.874023,1324.403687 1359.724854,1330.671631 1382.236938,1334.470215 
	C1393.889526,1336.436401 1405.617432,1337.776611 1417.795410,1339.107422 
	C1420.414917,1342.952759 1419.516724,1347.018677 1419.234985,1350.919922 
	C1418.385254,1362.694458 1417.322388,1374.449829 1417.462891,1386.275391 
	C1417.599121,1397.724243 1417.057129,1409.156860 1417.243774,1420.627563 
	C1417.595947,1442.280640 1414.574585,1463.763184 1411.154541,1485.134644 
	C1401.994873,1542.374390 1389.708862,1598.970093 1375.964355,1655.262451 
	C1375.292725,1658.013428 1374.735596,1660.786133 1374.025635,1663.961426 
	C1366.750366,1675.686035 1357.009888,1683.197021 1343.247559,1683.723633 
	C1331.023315,1684.191406 1319.629150,1681.161743 1309.798584,1672.918945 
	C1310.281250,1640.053345 1310.808716,1607.586914 1311.390259,1575.121582 
	C1312.034302,1539.163940 1312.709351,1503.206787 1313.405151,1467.250122 
	C1314.039795,1434.456909 1314.726685,1401.664795 1315.377686,1368.871948 
	C1315.714600,1351.894287 1316.023926,1334.916138 1316.332031,1317.473633 
z"/>
<path fill="#BA6F4D" opacity="1.000000" stroke="none" 
	d="
M1150.775146,681.401855 
	C1154.799561,672.437195 1158.840454,663.861755 1163.874023,655.796936 
	C1170.464600,645.237305 1180.865845,638.589539 1190.021484,630.169250 
	C1222.538086,604.413452 1255.535278,579.850403 1288.886353,555.759155 
	C1300.902954,547.078979 1312.902954,538.373169 1325.048462,529.876404 
	C1327.864258,527.906494 1329.211304,525.552307 1330.053345,522.320007 
	C1337.300415,494.499786 1342.951416,466.235413 1352.925903,439.169769 
	C1354.072510,436.058472 1355.562500,433.064087 1357.039062,430.087799 
	C1357.852417,428.448639 1358.853760,426.787384 1361.555176,427.331329 
	C1366.263184,434.515594 1364.894409,442.151611 1363.894165,449.730072 
	C1362.868774,457.499542 1361.056396,465.115234 1358.881226,472.628723 
	C1358.057129,475.475647 1358.016968,478.119873 1358.828613,480.933899 
	C1360.397095,486.372803 1361.260376,491.986816 1362.623291,497.468750 
	C1365.025635,507.132446 1362.018677,514.401855 1353.854736,519.839661 
	C1352.280518,520.888245 1350.478882,521.810120 1349.126709,523.851624 
	C1359.705688,520.936523 1366.462891,510.756775 1364.935669,500.882111 
	C1363.992920,494.786987 1362.773071,488.740845 1361.129272,482.820099 
	C1359.965820,478.629578 1359.991821,474.709869 1361.167358,470.582062 
	C1363.402466,462.735046 1364.948242,454.745880 1366.065430,446.646484 
	C1366.972656,440.070404 1367.053345,433.730499 1364.006836,427.256653 
	C1365.404785,423.184357 1366.593872,419.394958 1368.308105,415.860168 
	C1369.422729,413.562073 1371.272217,411.510925 1374.123047,414.784088 
	C1374.506958,416.099121 1374.880981,417.088196 1374.874268,418.053253 
	C1374.750000,435.792938 1378.458374,453.565674 1374.440308,471.276886 
	C1374.158936,472.517242 1373.620728,473.810333 1374.247070,475.106628 
	C1374.640137,475.224792 1374.918823,475.107697 1375.130615,474.773865 
	C1376.164062,473.144714 1376.279053,470.043823 1378.418457,470.235718 
	C1380.870483,470.455597 1380.647339,473.580048 1381.225830,475.561005 
	C1382.580688,480.200165 1384.012939,484.817932 1385.770020,489.310883 
	C1386.895386,492.188049 1386.379761,494.180206 1384.198730,496.416046 
	C1377.614746,503.165253 1373.183228,514.966187 1373.847656,523.741760 
	C1375.421021,521.581665 1375.409302,519.455139 1375.790405,517.516357 
	C1377.165039,510.524017 1380.015991,504.188232 1384.296143,498.535126 
	C1386.956055,495.021881 1388.323608,495.082336 1390.378540,498.990234 
	C1393.978394,505.835968 1398.808838,511.752289 1403.920166,517.955933 
	C1404.580322,519.280884 1404.420044,520.315857 1403.740234,521.034790 
	C1399.290161,525.740906 1395.406372,531.059265 1389.242798,534.240601 
	C1384.164917,538.213379 1379.696777,542.586060 1373.945068,545.888916 
	C1367.038574,546.888916 1361.771606,544.310974 1357.314819,539.471924 
	C1358.845093,546.287292 1364.456055,547.116760 1369.793335,548.899536 
	C1361.299683,562.583862 1351.298950,574.986816 1341.146973,587.259583 
	C1329.084106,601.842224 1316.721680,616.171387 1303.755493,629.968201 
	C1303.436279,630.307922 1303.331787,630.849670 1303.108398,631.637817 
	C1270.852905,669.283203 1234.842285,702.331421 1192.244873,729.191772 
	C1195.189819,730.077148 1196.459106,728.846924 1197.752563,728.015808 
	C1217.409546,715.385864 1235.869507,701.218445 1253.311279,685.646362 
	C1267.002075,673.423157 1279.433960,659.956055 1292.573242,647.193115 
	C1296.618896,643.263245 1299.602661,638.313965 1304.533936,634.896790 
	C1309.756714,640.701477 1313.322510,647.405090 1318.320068,653.160034 
	C1323.340576,658.941467 1329.199463,663.631653 1335.113159,668.845276 
	C1335.828247,669.608948 1336.078003,670.208557 1336.101074,671.222168 
	C1318.141724,684.283325 1300.222534,696.990662 1280.983887,707.687195 
	C1258.223633,720.341736 1234.770020,731.285889 1208.989136,736.300354 
	C1203.624390,737.343811 1198.142334,737.783508 1192.345093,738.670410 
	C1183.991699,738.966492 1176.143799,737.577148 1168.270142,736.589966 
	C1155.806763,735.027344 1145.703247,722.301880 1145.357056,707.878418 
	C1145.138428,698.777954 1147.653198,690.202026 1150.775146,681.401855 
z"/>
<path fill="#BB704E" opacity="1.000000" stroke="none" 
	d="
M1666.121094,778.420288 
	C1695.757202,777.023438 1717.585938,763.804932 1730.555176,736.291260 
	C1736.328613,757.896973 1745.082275,778.557007 1752.798340,799.621094 
	C1762.476074,826.041016 1766.553955,854.048157 1771.948730,881.614624 
	C1781.081665,928.283752 1788.936768,975.183228 1796.534058,1022.120728 
	C1797.986938,1031.097656 1800.343018,1039.476196 1804.467285,1047.597290 
	C1809.443115,1057.394897 1812.710205,1067.895508 1815.334595,1078.597656 
	C1818.293457,1090.663574 1825.105225,1101.106812 1830.081421,1112.324829 
	C1832.441040,1117.644287 1835.299072,1122.752930 1836.365479,1128.560425 
	C1836.902588,1131.484863 1838.042603,1134.978516 1834.820190,1136.695801 
	C1831.318726,1138.561646 1828.896362,1135.635132 1826.884277,1133.186401 
	C1820.723999,1125.689575 1816.223389,1117.120239 1811.382080,1108.773804 
	C1809.897705,1106.214722 1808.346924,1103.693970 1806.273804,1100.232788 
	C1805.969849,1104.398926 1807.573120,1106.936279 1808.521118,1109.579346 
	C1811.832520,1118.810425 1815.240234,1128.008423 1818.730103,1137.173584 
	C1820.956177,1143.020020 1819.553955,1148.317749 1816.506226,1153.337402 
	C1815.213257,1155.466675 1813.559448,1157.543701 1810.187500,1156.050171 
	C1807.558716,1146.946411 1803.133301,1138.897583 1799.619507,1130.480957 
	C1796.673340,1123.424194 1793.605347,1116.418213 1790.593994,1109.388550 
	C1790.151245,1108.354980 1789.924316,1107.115112 1787.310669,1106.235962 
	C1794.294922,1123.369507 1801.130005,1139.565552 1808.873901,1155.766968 
	C1808.203613,1158.475708 1807.693359,1160.968994 1806.614746,1163.185547 
	C1804.302734,1167.936279 1800.879028,1168.393555 1797.155273,1164.718994 
	C1794.854126,1162.448364 1793.441528,1159.610107 1792.105591,1156.746704 
	C1785.837158,1143.312256 1781.095337,1129.284058 1776.093994,1115.357422 
	C1775.503174,1113.712036 1775.394287,1111.826538 1773.403687,1110.230835 
	C1771.932129,1120.771973 1770.551758,1130.818848 1774.126343,1140.873047 
	C1776.019531,1146.197632 1777.533325,1151.662964 1777.946167,1157.340698 
	C1778.088013,1159.291870 1778.411865,1161.748779 1776.215942,1162.632812 
	C1774.227051,1163.433228 1772.908569,1161.441162 1771.751221,1160.107056 
	C1761.995972,1148.861206 1754.328979,1136.761353 1753.899414,1121.099976 
	C1753.676636,1112.978760 1752.312256,1104.885742 1751.377319,1096.790039 
	C1751.181763,1095.096191 1751.645752,1092.780762 1749.110107,1092.381226 
	C1747.066772,1092.059448 1746.355835,1093.943848 1745.422729,1095.258423 
	C1740.983032,1101.513062 1736.451050,1107.695190 1730.323608,1112.445923 
	C1728.817383,1113.613892 1727.138550,1115.502930 1725.050537,1114.341309 
	C1722.912476,1113.151733 1723.761597,1110.701050 1724.022827,1108.850342 
	C1724.847046,1103.009888 1727.649414,1097.827515 1729.891235,1092.464844 
	C1730.083618,1092.004761 1730.254150,1091.523682 1730.522461,1091.109009 
	C1739.183350,1077.718262 1740.760376,1062.177856 1743.866943,1047.105957 
	C1744.826294,1042.452148 1746.504272,1038.142578 1749.879028,1034.719238 
	C1751.617310,1032.955811 1751.240234,1031.456055 1750.360962,1029.407959 
	C1725.837646,972.281677 1707.066772,913.243103 1692.718018,852.820007 
	C1686.604858,827.077698 1675.910522,803.134094 1666.121094,778.420288 
z"/>
<path fill="#545FAE" opacity="1.000000" stroke="none" 
	d="
M897.732422,1805.376221 
	C895.574219,1790.065918 893.342957,1775.148804 890.941101,1760.259033 
	C885.368286,1725.711914 879.713135,1691.178223 874.153381,1656.219971 
	C878.238159,1655.979858 881.029053,1659.027344 884.655884,1660.249878 
	C896.416260,1664.214233 908.548401,1666.110962 920.807312,1667.477173 
	C939.523926,1669.563110 958.322815,1670.156738 977.105164,1669.432495 
	C995.375916,1668.727905 1013.644470,1667.458130 1031.494385,1662.890137 
	C1037.802368,1661.275757 1043.749512,1658.732666 1050.220703,1656.519287 
	C1049.827759,1668.219238 1047.280762,1679.565186 1045.464478,1691.016235 
	C1039.609253,1727.933105 1033.588257,1764.823730 1027.659424,1802.137695 
	C1027.144043,1804.542847 1028.037476,1806.460938 1027.920166,1808.482056 
	C1027.439087,1816.778320 1023.760010,1822.386475 1015.876953,1825.736206 
	C1005.276978,1830.240234 994.162598,1832.069214 982.894226,1833.217041 
	C962.915222,1835.252075 943.036926,1834.465698 923.349243,1830.244629 
	C918.942627,1829.299805 914.613892,1828.106812 910.488159,1826.265991 
	C899.869934,1821.528198 897.369019,1817.548096 897.732422,1805.376221 
z"/>
<path fill="#020202" opacity="1.000000" stroke="none" 
	d="
M1612.418335,543.927002 
	C1595.279175,542.147522 1578.854370,538.155884 1563.135010,530.418457 
	C1553.792969,525.133240 1544.809570,519.865356 1537.095459,512.166504 
	C1535.031860,497.594269 1534.466675,483.336395 1534.786621,468.615143 
	C1536.490112,464.797699 1538.745361,461.737854 1540.418213,457.927094 
	C1550.131958,452.873077 1557.096680,445.936981 1560.560913,435.667725 
	C1562.974365,428.512695 1563.590942,421.286804 1561.821533,414.018280 
	C1558.447632,400.159546 1545.641113,396.029724 1534.528564,405.062958 
	C1530.600952,408.255646 1527.480713,412.120483 1525.094360,416.596130 
	C1524.401367,417.895844 1523.646973,419.510956 1521.874023,419.332794 
	C1520.041870,419.148590 1519.813232,417.346619 1519.424072,415.937378 
	C1518.003906,410.796722 1516.814331,405.596283 1515.496582,400.428680 
	C1514.918335,398.161255 1514.119751,396.432861 1511.197266,396.638153 
	C1501.778076,397.299713 1492.588989,395.581848 1483.574585,393.185974 
	C1464.844604,388.207886 1446.886475,381.050354 1429.270996,373.044708 
	C1419.868896,368.771790 1410.432739,364.538910 1401.372559,359.566132 
	C1397.766479,357.586823 1395.515503,358.449982 1393.648438,361.880280 
	C1392.049072,364.818878 1390.540894,367.770172 1389.611572,370.997589 
	C1389.108643,372.744110 1388.813477,374.613586 1386.794434,375.855194 
	C1376.933228,364.806213 1375.925659,354.594879 1384.299683,342.789246 
	C1402.590820,317.002899 1427.521606,302.964539 1459.389160,302.207550 
	C1477.571045,301.775635 1495.677246,302.616852 1513.252075,308.003906 
	C1527.913940,312.498169 1539.705444,320.930908 1548.340698,333.705261 
	C1552.798340,340.299408 1554.197021,348.111969 1557.082153,355.321808 
	C1581.770386,417.016022 1602.968628,479.909149 1621.224243,543.798462 
	C1621.360596,544.276245 1621.596436,544.725586 1621.848511,545.563721 
	C1620.794312,545.924194 1619.677246,545.909180 1618.139648,545.922424 
	C1615.601807,543.654663 1614.923950,540.702393 1614.113770,537.839111 
	C1603.712158,501.082275 1591.590332,464.877838 1579.161255,428.770996 
	C1578.192627,425.957214 1577.250366,423.125000 1576.659180,419.802795 
	C1574.494385,414.786133 1573.092896,409.895782 1571.337891,405.135712 
	C1571.053711,404.529999 1570.541260,405.342316 1571.097046,404.974182 
	C1573.087158,409.474396 1574.153442,414.317291 1576.352295,419.153900 
	C1582.156250,439.005432 1588.161499,458.392670 1593.865479,477.869812 
	C1599.807495,498.159515 1606.028931,518.366699 1611.849976,538.692139 
	C1612.304932,540.280212 1612.975586,541.847717 1612.418335,543.927002 
z"/>
<path fill="#BA6F4D" opacity="1.000000" stroke="none" 
	d="
M1386.447754,376.378723 
	C1388.492798,370.338196 1390.027954,364.559235 1393.454346,359.501892 
	C1395.438110,356.573853 1396.859131,355.604950 1400.547852,357.513153 
	C1425.376587,370.357269 1450.695923,382.122589 1477.606079,390.054260 
	C1489.114502,393.446320 1500.735107,396.355133 1512.903198,395.070953 
	C1515.502319,394.796631 1515.855957,396.210632 1516.331299,398.162720 
	C1517.975342,404.914581 1519.775269,411.628510 1521.581299,418.610138 
	C1523.463867,417.944733 1523.574951,416.273712 1524.244141,415.121826 
	C1527.300659,409.860352 1531.063110,405.274536 1536.296753,402.035675 
	C1546.855713,395.501251 1557.864258,399.135895 1562.339111,410.624390 
	C1569.114868,428.021027 1558.881348,451.443085 1541.278320,457.991394 
	C1539.793945,457.141632 1539.515869,455.787994 1538.918579,454.623535 
	C1535.947266,448.829559 1530.833618,446.668243 1525.389893,448.909698 
	C1520.591431,450.885468 1518.648804,456.526978 1520.776855,462.335632 
	C1521.004517,462.957123 1521.250854,463.570129 1521.400879,464.585449 
	C1515.884033,480.519165 1509.322021,495.574463 1499.372070,508.921814 
	C1490.666626,520.599548 1479.700806,529.114502 1465.053955,533.036743 
	C1444.369141,536.768188 1427.384766,529.789368 1412.317017,516.721008 
	C1411.184448,515.738708 1410.054443,514.753906 1408.603027,513.512817 
	C1393.255981,495.611908 1386.684814,474.544525 1383.729614,452.097870 
	C1382.429565,442.223694 1381.397705,432.293976 1381.613647,422.296204 
	C1381.656250,420.319550 1381.378052,418.281891 1382.727295,416.113190 
	C1383.371582,402.717407 1384.982544,389.780365 1386.447754,376.378723 
z"/>
<path fill="#DFDEEA" opacity="1.000000" stroke="none" 
	d="
M1465.995117,1795.824097 
	C1448.848877,1796.780640 1431.989502,1796.131104 1415.295288,1797.303467 
	C1393.803589,1798.812744 1372.468994,1796.511108 1351.050659,1796.730835 
	C1334.358032,1796.901978 1317.588623,1795.512939 1300.953247,1793.829956 
	C1280.577026,1791.768433 1260.202637,1789.643799 1239.940674,1786.356079 
	C1221.252197,1783.323730 1202.774536,1779.661621 1184.820068,1773.728027 
	C1175.713623,1770.718384 1166.574951,1767.436157 1159.641724,1760.180420 
	C1154.348389,1754.640381 1154.416138,1749.124512 1159.882446,1743.608276 
	C1166.569214,1736.860474 1175.329834,1734.003174 1183.904907,1730.956787 
	C1203.960815,1723.831543 1224.816895,1720.100220 1245.794312,1716.982056 
	C1250.364990,1716.302734 1254.952271,1715.734741 1259.983765,1715.188965 
	C1259.504639,1719.144043 1256.234985,1721.171387 1253.568726,1723.558228 
	C1240.292480,1735.443237 1227.282104,1747.610352 1214.418091,1759.937012 
	C1212.000244,1762.253906 1210.013062,1764.932739 1207.862549,1767.476196 
	C1205.885376,1769.814453 1206.875000,1770.673340 1209.453735,1770.655029 
	C1215.304688,1770.613770 1221.044067,1769.503418 1226.814941,1768.727539 
	C1249.780518,1765.639893 1272.598755,1761.735596 1295.149170,1756.346558 
	C1306.979248,1753.519409 1317.880005,1748.711304 1327.451172,1741.139404 
	C1330.243164,1738.930420 1333.043579,1738.361328 1335.365601,1741.197998 
	C1340.521851,1747.497314 1347.023804,1748.117432 1354.290161,1746.451904 
	C1355.910400,1746.080566 1357.562622,1745.745972 1359.231689,1745.734253 
	C1362.711304,1745.709961 1364.691284,1743.895142 1365.902100,1740.745972 
	C1369.434814,1731.556763 1372.628662,1722.272095 1374.639038,1712.611694 
	C1375.109375,1710.351318 1375.321167,1707.947632 1377.745361,1706.161865 
	C1380.409912,1705.286377 1382.752075,1705.428223 1385.075195,1705.423706 
	C1396.055786,1705.402466 1407.038818,1705.562500 1418.016479,1705.382446 
	C1438.484985,1705.046753 1458.864868,1707.039917 1479.300903,1707.502319 
	C1481.140625,1707.543945 1482.941772,1707.865601 1485.038330,1708.845215 
	C1488.290771,1711.946777 1486.455566,1715.043579 1485.599731,1717.902344 
	C1481.026855,1733.174072 1476.724243,1748.514771 1472.918823,1763.998291 
	C1470.618408,1773.358643 1468.572510,1782.757568 1467.376099,1792.328369 
	C1467.231201,1793.487061 1467.080688,1794.637573 1465.995117,1795.824097 
z"/>
<path fill="#060706" opacity="1.000000" stroke="none" 
	d="
M1050.768555,1656.291260 
	C1036.305786,1665.445190 1020.014099,1667.061157 1003.880859,1668.869873 
	C980.376526,1671.505005 956.779785,1671.650391 933.194092,1669.924805 
	C917.118896,1668.748413 901.094360,1667.111938 885.664612,1662.006104 
	C881.703430,1660.695190 877.854309,1659.146973 874.521484,1655.953003 
	C872.015198,1650.440186 875.679260,1648.082275 879.475220,1646.166504 
	C887.422241,1642.155151 896.089111,1640.442749 904.778564,1638.977173 
	C921.865845,1636.094727 939.094055,1634.743530 956.415100,1634.903320 
	C959.865051,1634.935059 960.979370,1634.186646 960.510315,1630.582642 
	C959.440369,1622.361816 959.609436,1614.004395 957.817871,1605.421997 
	C956.055542,1598.265747 955.515564,1591.060669 949.366211,1585.984619 
	C947.460999,1585.817749 946.179321,1585.041748 944.911804,1584.240234 
	C913.567017,1564.417603 880.794922,1564.095215 847.032288,1577.035156 
	C843.936768,1578.221436 841.024170,1579.877319 837.362549,1580.624146 
	C835.446228,1580.616089 833.697083,1582.017456 832.518555,1580.020630 
	C831.600342,1578.464844 832.912354,1577.665039 834.067505,1576.511230 
	C835.276184,1574.844727 836.610474,1573.864502 838.145996,1573.172119 
	C866.882446,1560.212524 896.343811,1557.041626 926.541931,1567.319092 
	C935.160156,1570.251953 943.623291,1573.927002 950.615540,1580.819458 
	C952.746399,1583.185791 955.071655,1584.791260 956.912048,1587.115601 
	C957.192322,1575.026978 955.110046,1563.745605 946.163818,1554.315674 
	C942.753662,1552.171753 940.186157,1549.567993 937.661438,1546.925049 
	C916.638428,1524.916748 893.292053,1505.752441 867.383728,1489.766846 
	C837.610168,1471.396118 806.065125,1457.054688 772.092102,1448.310913 
	C768.875793,1447.483276 765.571350,1446.926880 762.260132,1445.202148 
	C760.841248,1442.952393 754.868713,1445.485352 757.625122,1439.931641 
	C760.079895,1438.311523 762.378540,1438.864868 764.665588,1439.373657 
	C784.900940,1443.875000 804.392761,1450.649170 823.377319,1458.882690 
	C853.810608,1472.081787 881.841370,1489.280029 907.756897,1509.969727 
	C921.326172,1520.802856 933.530090,1533.083252 945.687378,1545.419678 
	C946.861328,1546.611084 947.889954,1547.917847 948.732117,1549.803955 
	C950.950928,1553.459351 953.934509,1556.097534 955.979187,1559.558838 
	C955.979187,1550.879395 955.965393,1542.199829 955.982056,1533.520386 
	C956.016785,1515.399170 956.062256,1497.277954 956.113281,1479.156738 
	C956.160583,1462.367920 951.914001,1447.596924 936.470459,1437.782471 
	C932.696655,1437.903076 930.203674,1435.669556 927.502136,1434.149292 
	C903.108582,1420.420166 877.457153,1409.909668 850.175781,1403.447266 
	C826.145874,1397.755127 801.841919,1396.003784 777.250427,1398.054932 
	C775.407166,1398.208618 773.595642,1397.940063 771.366455,1397.788940 
	C769.636658,1397.784302 768.305786,1397.825684 766.983521,1397.954956 
	C765.411804,1398.108765 763.353271,1398.626099 763.143555,1396.483276 
	C762.941711,1394.420532 764.967529,1394.177002 766.683411,1393.859619 
	C783.341614,1390.778564 800.127319,1390.805542 816.877686,1392.372559 
	C859.942383,1396.401245 899.495239,1410.960815 936.565186,1432.865234 
	C945.456055,1438.118652 952.114380,1445.151489 956.583191,1455.840942 
	C957.730408,1437.767944 958.803040,1420.869995 959.824219,1403.558350 
	C957.048950,1397.251953 959.443970,1391.286743 959.899475,1385.471924 
	C963.413025,1340.622803 970.434265,1296.243530 978.454285,1252.009644 
	C978.961182,1249.213745 979.589233,1246.473633 980.901733,1243.494629 
	C981.205994,1243.168579 981.008179,1243.061768 981.112427,1243.103271 
	C981.385498,1242.603271 981.518555,1242.053223 981.773621,1241.263062 
	C982.092468,1240.565918 982.215149,1240.085938 982.402222,1239.632812 
	C982.971497,1238.253418 982.501404,1235.775146 984.903870,1236.156860 
	C986.828369,1236.462402 986.792542,1238.420776 986.577515,1240.450562 
	C987.626953,1244.327881 986.739075,1247.764526 986.118408,1251.180664 
	C979.714722,1286.425415 973.594177,1321.721069 969.886719,1357.367065 
	C968.578979,1369.940430 967.031616,1382.507690 966.420959,1395.152100 
	C966.299744,1397.661987 966.034058,1400.144043 964.405273,1402.716064 
	C963.441956,1412.504272 962.719910,1421.921875 961.887634,1432.777588 
	C964.859924,1427.771729 967.080505,1424.031860 969.590820,1420.102173 
	C977.090881,1410.480835 985.796631,1402.430420 994.498535,1394.503418 
	C1020.739929,1370.598999 1049.815674,1350.680908 1081.816895,1335.267578 
	C1105.113647,1324.046631 1129.229248,1314.920654 1154.620361,1309.517090 
	C1156.556030,1309.105103 1158.507935,1308.432495 1160.808350,1309.581665 
	C1162.854980,1313.056396 1162.854980,1313.056396 1157.396729,1314.889160 
	C1151.096558,1318.164307 1144.363525,1318.812378 1138.002686,1320.697266 
	C1106.796143,1329.943970 1077.604858,1343.553467 1050.075928,1360.809570 
	C1025.834351,1376.005127 1003.752625,1393.886230 983.819702,1414.422241 
	C980.807068,1417.526001 977.878723,1420.734741 974.113525,1423.582520 
	C968.900940,1427.007812 966.974976,1432.163574 964.989502,1437.298340 
	C960.510010,1448.883057 960.442444,1461.111816 960.360596,1473.195679 
	C960.296387,1482.673706 959.862610,1492.138794 959.833191,1501.614746 
	C959.757385,1526.083740 960.025391,1550.544922 961.059326,1574.992920 
	C961.209229,1578.536499 961.786743,1582.062012 962.516113,1585.675903 
	C964.875366,1579.118530 967.556152,1572.776367 970.921204,1566.356445 
	C972.029968,1561.141602 975.198059,1557.361328 977.747620,1553.337036 
	C995.385132,1525.497681 1015.952087,1499.964478 1040.247437,1477.704224 
	C1067.960205,1452.312744 1098.629517,1431.340698 1134.521240,1418.935547 
	C1138.080078,1417.705566 1141.564941,1415.874756 1145.884033,1416.585938 
	C1149.776855,1419.017822 1148.330200,1420.325439 1145.072266,1421.577881 
	C1141.122314,1424.964722 1136.275879,1425.332153 1131.990234,1427.000000 
	C1104.104980,1437.851685 1079.276855,1453.608887 1056.377197,1472.733398 
	C1024.357300,1499.474365 998.813538,1531.563843 977.297668,1567.068115 
	C976.775574,1567.929688 976.225952,1568.750122 975.072998,1569.514404 
	C968.217957,1578.303101 966.309143,1588.617920 964.128662,1598.812012 
	C961.754150,1609.912964 964.060547,1620.974243 964.563599,1632.052734 
	C964.720886,1635.516479 967.098755,1634.800415 969.151917,1634.814575 
	C989.788879,1634.957886 1010.289490,1636.492798 1030.478882,1641.007690 
	C1036.467529,1642.346802 1042.396606,1643.994263 1047.671143,1647.289917 
	C1050.897705,1649.305786 1052.995239,1651.896729 1050.768555,1656.291260 
z"/>
<path fill="#010102" opacity="1.000000" stroke="none" 
	d="
M1377.497314,1706.632812 
	C1374.683472,1719.194214 1371.275024,1731.142090 1366.493896,1742.709595 
	C1365.287964,1745.626953 1363.621826,1746.824341 1360.624512,1746.961670 
	C1357.972900,1747.082886 1355.235840,1747.237183 1352.716187,1747.983398 
	C1345.332153,1750.170532 1339.485229,1748.116455 1334.774536,1742.226929 
	C1332.708984,1739.644165 1330.962646,1739.832397 1328.324585,1742.021118 
	C1315.235352,1752.880127 1299.409546,1757.170410 1283.137085,1760.446533 
	C1259.152100,1765.275391 1235.054443,1769.340088 1210.717163,1771.881836 
	C1208.571045,1772.105957 1205.383545,1773.422974 1204.320801,1771.319946 
	C1203.229126,1769.159424 1206.118896,1767.324585 1207.621094,1765.691406 
	C1223.985962,1747.898193 1242.262695,1732.109985 1260.265137,1715.558960 
	C1276.669678,1701.126465 1292.903564,1686.990723 1309.433716,1672.687134 
	C1319.991455,1679.211426 1331.095337,1683.149902 1343.497070,1682.469116 
	C1354.893311,1681.843628 1363.630859,1676.369263 1370.266235,1667.264282 
	C1370.844727,1666.470215 1371.552368,1665.770142 1372.514404,1664.905029 
	C1374.832031,1665.364990 1375.730347,1667.038330 1376.314697,1668.753296 
	C1379.182373,1677.168701 1381.073853,1685.812012 1379.908203,1694.714844 
	C1379.402832,1698.575073 1380.493896,1702.822510 1377.497314,1706.632812 
z"/>
<path fill="#010102" opacity="1.000000" stroke="none" 
	d="
M1465.689453,1796.476074 
	C1469.015747,1767.633667 1477.614502,1740.491455 1485.563110,1713.192505 
	C1485.793945,1712.399536 1485.960571,1711.587891 1486.080322,1710.392578 
	C1485.562012,1709.463745 1485.292847,1708.834595 1485.517334,1708.170044 
	C1488.749146,1698.603760 1491.437256,1688.862793 1494.797607,1679.338623 
	C1495.075317,1678.551392 1495.609375,1677.902588 1496.694336,1677.308228 
	C1497.652832,1680.940308 1497.979004,1684.743774 1498.854736,1688.416382 
	C1501.541992,1699.685181 1508.538940,1703.732422 1519.707275,1700.365723 
	C1533.419434,1696.232300 1544.271118,1687.369873 1555.035889,1678.429199 
	C1557.463623,1676.412842 1559.834351,1674.328125 1562.548096,1672.196045 
	C1565.190918,1687.327759 1567.222290,1702.553833 1565.343750,1718.456421 
	C1566.850708,1723.847778 1564.802002,1728.078857 1562.448608,1732.084717 
	C1561.000000,1734.550659 1558.114502,1734.453735 1555.645874,1734.233032 
	C1551.254517,1733.840088 1549.397095,1735.716064 1548.767944,1740.019409 
	C1545.735962,1760.756836 1533.302368,1775.672852 1518.082886,1788.789307 
	C1516.689209,1789.990234 1515.118530,1790.939819 1513.026245,1791.720459 
	C1504.478149,1797.133667 1496.391479,1802.587891 1486.887451,1805.418945 
	C1482.572388,1806.704468 1478.207031,1807.614014 1473.729492,1807.807983 
	C1466.947266,1808.101440 1465.980347,1807.172119 1465.538574,1800.390015 
	C1465.463989,1799.243896 1465.676025,1798.079102 1465.689453,1796.476074 
z"/>
<path fill="#7E9E6E" opacity="1.000000" stroke="none" 
	d="
M975.133118,1569.807129 
	C979.898254,1558.817017 986.924500,1549.112427 993.835449,1539.366943 
	C1022.308716,1499.215088 1056.652222,1465.312744 1099.709717,1440.832642 
	C1113.761841,1432.843384 1128.333862,1425.972900 1144.426270,1421.802246 
	C1138.666260,1437.806641 1129.359619,1451.990112 1119.168701,1465.557617 
	C1081.999878,1515.042236 1033.538574,1549.096313 975.133118,1569.807129 
z"/>
<path fill="#DFDEEA" opacity="1.000000" stroke="none" 
	d="
M1513.123047,1791.881592 
	C1519.751343,1785.581299 1526.793701,1779.320068 1532.878662,1772.002563 
	C1541.427856,1761.721558 1546.009277,1749.856812 1548.043579,1736.833374 
	C1548.346436,1734.895020 1548.186523,1732.928955 1551.253906,1732.912964 
	C1554.476318,1732.896240 1558.452637,1734.493042 1560.800171,1732.100220 
	C1563.967041,1728.872437 1564.404541,1724.042603 1565.231445,1719.262695 
	C1581.342773,1721.741455 1597.257690,1724.907593 1612.684204,1730.083496 
	C1619.924438,1732.512817 1627.094604,1735.182739 1633.576904,1739.345825 
	C1638.604492,1742.574341 1643.339600,1746.215698 1642.928467,1752.984741 
	C1642.537231,1759.425415 1637.555298,1762.817139 1632.672363,1765.542114 
	C1618.622803,1773.383301 1603.227783,1777.501709 1587.635376,1781.020630 
	C1570.840698,1784.810791 1553.831665,1787.328125 1536.816040,1789.772339 
	C1529.128052,1790.876587 1521.333374,1791.236328 1513.123047,1791.881592 
z"/>
<path fill="#7E9E6E" opacity="1.000000" stroke="none" 
	d="
M1146.229004,1416.368164 
	C1111.895630,1426.179565 1082.290283,1444.295776 1055.065063,1466.621826 
	C1021.120544,1494.458496 994.105957,1528.198608 971.323242,1565.871582 
	C969.742676,1556.654053 971.596375,1547.536621 973.558411,1538.516479 
	C981.073059,1503.968872 999.472473,1476.552002 1028.350342,1456.203125 
	C1056.933350,1436.061768 1088.033203,1421.393677 1122.195557,1413.495483 
	C1127.894287,1412.177979 1133.681763,1411.480469 1139.533325,1412.013916 
	C1142.319702,1412.267944 1145.321045,1412.458130 1146.229004,1416.368164 
z"/>
<path fill="#7E9E6E" opacity="1.000000" stroke="none" 
	d="
M974.187622,1423.870117 
	C980.358948,1414.690308 988.729858,1407.307495 996.904907,1399.806030 
	C1036.621582,1363.363281 1082.147217,1336.860962 1133.604736,1320.669312 
	C1141.049561,1318.326782 1148.527710,1316.051758 1156.684814,1314.961182 
	C1150.306885,1323.770508 1141.786743,1330.687378 1133.329468,1337.606812 
	C1092.644653,1370.892456 1046.975342,1395.548096 998.368286,1415.039673 
	C990.507812,1418.191528 982.506531,1420.992065 974.187622,1423.870117 
z"/>
<path fill="#7E9E6E" opacity="1.000000" stroke="none" 
	d="
M964.504456,1403.020996 
	C966.024719,1379.199463 968.156677,1355.336792 971.386169,1331.590576 
	C975.488586,1301.425781 980.761780,1271.450439 986.406738,1241.165894 
	C990.202087,1245.698730 992.676086,1251.215698 995.675293,1256.801025 
	C1000.939331,1268.814087 1005.429504,1280.763794 1008.028198,1293.384155 
	C1013.536133,1320.132568 1008.727661,1344.875122 994.376465,1368.006958 
	C988.581482,1377.347412 983.171509,1386.920898 975.555847,1394.965576 
	C972.458069,1398.237915 969.159546,1401.290771 964.504456,1403.020996 
z"/>
<path fill="#DFDEEA" opacity="1.000000" stroke="none" 
	d="
M897.534546,1805.021851 
	C898.235535,1806.413086 898.893921,1807.856323 898.890259,1809.297852 
	C898.869507,1817.427612 903.243103,1822.029785 910.459167,1824.892456 
	C920.150024,1828.737061 930.275146,1830.684814 940.520081,1831.687622 
	C962.142456,1833.804199 983.692139,1833.353271 1004.929565,1828.044800 
	C1005.090576,1828.004517 1005.260498,1827.999512 1005.421265,1827.958374 
	C1022.517822,1823.594360 1025.168701,1820.586060 1027.451660,1802.889893 
	C1028.536499,1807.539673 1033.541016,1808.115479 1036.616089,1810.609497 
	C1044.465576,1816.975952 1045.312378,1824.246094 1038.271362,1831.248047 
	C1029.079346,1840.389282 1016.896912,1843.004395 1005.024231,1845.862305 
	C986.500671,1850.321045 967.514709,1850.989136 948.628723,1849.809448 
	C929.777283,1848.631714 911.008057,1846.091431 893.908691,1836.973999 
	C889.317749,1834.526123 884.995422,1831.757446 882.485229,1826.950562 
	C880.046692,1822.280640 880.687073,1818.101074 884.281494,1814.185059 
	C887.930359,1810.209473 892.086060,1806.979614 897.534546,1805.021851 
z"/>
<path fill="#7E9E6E" opacity="1.000000" stroke="none" 
	d="
M1161.086914,1309.412842 
	C1140.651733,1312.967407 1121.242920,1319.779907 1102.197998,1327.663086 
	C1052.448120,1348.255615 1009.385742,1378.496948 972.746033,1417.923096 
	C972.069946,1418.650635 971.305176,1419.295776 970.231079,1419.945801 
	C973.288818,1409.180176 980.466370,1400.809326 987.437195,1392.385498 
	C1026.602539,1345.057007 1078.566040,1319.881836 1137.158447,1306.349365 
	C1142.316650,1305.157959 1147.661377,1304.612793 1153.015259,1305.045166 
	C1156.218994,1305.303955 1159.364868,1305.725830 1161.086914,1309.412842 
z"/>
<path fill="#060706" opacity="1.000000" stroke="none" 
	d="
M1382.595337,415.802948 
	C1382.865356,434.050140 1384.001587,452.219391 1388.345093,470.063293 
	C1392.118896,485.566589 1398.753906,499.686096 1408.954590,512.422424 
	C1409.402954,516.077087 1407.507080,517.903259 1404.406982,519.071289 
	C1397.092407,512.580017 1391.911377,504.901123 1387.590820,496.325623 
	C1380.830200,504.114624 1377.225220,513.019470 1376.083008,522.994568 
	C1375.899658,524.594299 1376.219116,526.815125 1373.753174,526.500366 
	C1371.475220,526.209534 1371.892822,524.040283 1372.080200,522.456787 
	C1373.354614,511.683838 1376.354736,501.610199 1384.941406,494.239471 
	C1386.654541,492.768921 1385.507080,491.968964 1385.092285,490.937103 
	C1382.426147,484.305603 1380.373535,477.481567 1378.587402,470.447418 
	C1376.369019,471.905975 1377.287720,474.474121 1376.269531,476.296631 
	C1375.624634,477.451050 1374.981812,478.293335 1373.622803,477.927216 
	C1372.529297,477.632507 1371.928223,476.663177 1372.242432,475.605408 
	C1378.087524,455.923676 1372.762085,435.878235 1374.225830,415.599182 
	C1376.231689,416.902374 1375.771240,419.757538 1377.280029,422.007812 
	C1379.245361,420.127625 1379.167358,416.646729 1382.595337,415.802948 
z"/>
<path fill="#0C0F0A" opacity="1.000000" stroke="none" 
	d="
M1344.120728,769.501221 
	C1346.309570,769.008972 1348.049927,769.948486 1349.892700,770.717529 
	C1387.587280,786.450317 1426.538086,796.268066 1467.705444,795.352600 
	C1500.730347,794.618286 1531.054932,785.860229 1557.173828,764.823059 
	C1558.066040,764.104431 1559.004395,763.387146 1560.033447,762.912659 
	C1560.792236,762.562683 1561.688599,762.814514 1562.263062,763.558044 
	C1562.850098,764.317505 1562.814575,765.165161 1562.184692,765.826721 
	C1561.272217,766.785217 1560.283447,767.683411 1559.253174,768.515686 
	C1536.500366,786.893494 1510.118774,796.355469 1481.326050,798.756409 
	C1433.599854,802.736084 1388.457642,792.093079 1344.670654,772.905273 
	C1344.223267,771.846375 1344.112671,770.853210 1344.120728,769.501221 
z"/>
<path fill="#0E0806" opacity="1.000000" stroke="none" 
	d="
M1363.637695,426.929932 
	C1367.595825,429.644684 1367.844604,433.723846 1367.850586,437.692719 
	C1367.868774,449.769012 1364.936890,461.389526 1361.871460,472.953552 
	C1361.160889,475.633911 1361.154907,478.034882 1361.868896,480.721405 
	C1363.659424,487.458649 1364.893677,494.327759 1366.250488,501.169739 
	C1367.650879,508.232605 1365.471680,513.487000 1360.408936,518.092041 
	C1357.324951,520.897095 1354.274292,523.711060 1350.455200,525.503479 
	C1348.979126,526.196228 1347.406982,526.444275 1346.659790,524.609741 
	C1345.988770,522.961853 1347.311157,522.348083 1348.598999,521.744629 
	C1349.794312,521.184631 1350.885742,520.396423 1352.003174,519.677917 
	C1360.408203,514.273682 1364.748169,507.219574 1361.182495,496.974365 
	C1356.378662,483.172089 1357.314941,469.600494 1361.499512,455.695709 
	C1364.185181,446.771912 1364.936401,437.274200 1361.880371,427.704651 
	C1362.369629,427.265503 1362.826050,427.129822 1363.637695,426.929932 
z"/>
<path fill="#0C0F0A" opacity="1.000000" stroke="none" 
	d="
M1628.422607,712.560669 
	C1619.081177,698.401917 1610.085571,684.261108 1601.101074,670.113281 
	C1600.391479,668.995911 1599.649780,667.877441 1599.123169,666.671997 
	C1598.696899,665.695984 1598.913208,664.683594 1600.004883,664.152771 
	C1600.826172,663.753357 1601.700806,663.861877 1602.286011,664.541199 
	C1603.038208,665.414429 1603.666870,666.401306 1604.291382,667.376038 
	C1612.710571,680.518311 1621.131104,693.659668 1629.515503,706.824097 
	C1630.464111,708.313354 1631.912231,709.730103 1630.932251,712.182068 
	C1630.166138,712.563904 1629.468750,712.570312 1628.422607,712.560669 
z"/>
<path fill="#0E0806" opacity="1.000000" stroke="none" 
	d="
M1809.202637,1156.022461 
	C1806.967529,1155.779785 1806.523071,1154.083252 1805.870483,1152.570801 
	C1799.625977,1138.099854 1793.365845,1123.635498 1787.160889,1109.147705 
	C1786.489502,1107.580078 1785.006348,1105.545654 1787.545654,1104.457886 
	C1789.764648,1103.507080 1790.296021,1105.767212 1790.905884,1107.176270 
	C1797.363892,1122.095581 1803.755127,1137.043579 1810.176392,1151.978760 
	C1810.645996,1153.070923 1811.170166,1154.124268 1810.044434,1155.515137 
	C1809.915527,1155.833008 1809.433838,1155.937012 1809.202637,1156.022461 
z"/>
<path fill="#0C0F0A" opacity="1.000000" stroke="none" 
	d="
M1336.271240,671.692139 
	C1335.821655,670.921631 1335.598999,670.292419 1335.331299,669.409485 
	C1340.435669,659.100525 1345.580322,649.042908 1350.738892,638.992432 
	C1351.534668,637.442139 1352.007690,634.964783 1354.448486,636.026611 
	C1357.165039,637.208618 1355.184692,639.158691 1354.472046,640.605286 
	C1349.841553,650.003601 1345.121948,659.357971 1340.417114,668.719543 
	C1339.761963,670.023132 1339.417358,671.617249 1337.296875,672.060120 
	C1336.795410,672.030151 1336.646729,671.931763 1336.271240,671.692139 
z"/>
<path fill="#7684F1" opacity="1.000000" stroke="none" 
	d="
M597.870483,800.504395 
	C602.260071,800.830505 606.246826,801.150696 610.233765,801.151794 
	C709.729126,801.179810 809.224426,801.173401 908.719788,801.175293 
	C923.770325,801.175537 931.919373,809.307617 931.919250,824.303711 
	C931.918640,920.965881 931.919373,1017.627991 931.919617,1114.290161 
	C931.919678,1129.974121 923.958923,1137.918213 908.191101,1137.918701 
	C758.031494,1137.922974 607.871765,1137.880371 457.712280,1137.998291 
	C445.471741,1138.007935 434.692627,1130.205811 434.738739,1115.099731 
	C435.072357,1005.772522 434.916290,896.443787 434.918884,787.115601 
	C434.919189,774.385071 440.321960,769.078857 453.266205,769.077393 
	C480.764923,769.074219 508.266144,769.294006 535.761169,768.975037 
	C547.608887,768.837585 557.433044,772.653503 566.152527,780.493835 
	C573.820679,787.388794 581.740173,794.069153 591.366211,798.226868 
	C593.337830,799.078552 595.430725,799.649475 597.870483,800.504395 
z"/>
<path fill="#7E9E6E" opacity="1.000000" stroke="none" 
	d="
M980.856201,1243.183105 
	C979.856567,1256.909058 976.721191,1270.358887 974.518066,1283.960693 
	C969.838196,1312.853027 965.262451,1341.748901 962.886719,1370.948486 
	C962.036926,1381.392578 960.946228,1391.817261 959.869141,1402.697754 
	C954.710510,1403.142822 951.449890,1400.201294 948.902588,1396.289185 
	C943.602966,1388.150269 942.527527,1378.857178 942.416443,1369.529297 
	C942.088318,1341.957642 947.813721,1315.442871 957.141663,1289.622437 
	C961.099182,1278.667358 965.996704,1268.126099 971.420166,1257.406006 
	C974.594299,1252.467163 976.850830,1247.381836 980.856201,1243.183105 
z"/>
<path fill="#7E9E6E" opacity="1.000000" stroke="none" 
	d="
M981.712341,1241.239746 
	C981.878235,1241.634399 981.816040,1242.235352 981.485291,1242.990479 
	C981.305847,1242.578613 981.395081,1242.012329 981.712341,1241.239746 
z"/>
<path fill="#FFFEFE" opacity="1.000000" stroke="none" 
	d="
M1496.966553,1676.728271 
	C1494.333496,1685.659790 1491.626587,1694.134521 1488.826538,1702.578369 
	C1488.073486,1704.849487 1487.038086,1707.026978 1486.067993,1709.623779 
	C1477.713013,1707.960449 1469.185547,1708.849121 1460.790527,1708.235352 
	C1433.285400,1706.224976 1405.686890,1707.115967 1377.668091,1706.971191 
	C1378.402832,1696.827271 1379.404785,1686.702026 1377.127808,1676.553467 
	C1376.258301,1672.678345 1375.011108,1668.985107 1373.002075,1665.130859 
	C1374.323486,1653.042358 1377.905762,1641.761841 1380.536011,1630.275024 
	C1392.567017,1577.734131 1404.019287,1525.075562 1411.676025,1471.689819 
	C1414.652466,1450.936401 1416.231079,1430.087524 1415.619873,1408.990112 
	C1414.954712,1386.031372 1416.617798,1363.049072 1418.263062,1339.668701 
	C1435.456787,1340.031860 1452.689453,1340.566040 1469.936768,1339.826782 
	C1472.585571,1339.713257 1475.232300,1339.549683 1478.266846,1339.434692 
	C1482.014893,1382.074707 1485.474976,1424.681885 1488.701538,1467.306519 
	C1490.722900,1494.011719 1492.890137,1520.689819 1493.306519,1547.519653 
	C1493.972656,1590.441162 1495.623291,1633.347290 1496.966553,1676.728271 
z"/>
<path fill="#7E9E6E" opacity="1.000000" stroke="none" 
	d="
M762.020508,1445.324219 
	C772.955933,1446.087402 783.329834,1449.716187 793.647949,1453.273804 
	C852.861572,1473.690308 903.538208,1507.155762 945.819763,1553.775635 
	C932.733093,1550.511841 920.271667,1545.008423 907.782532,1539.657227 
	C863.736023,1520.784302 822.206848,1497.601318 785.075928,1467.025879 
	C776.987915,1460.365967 769.190674,1453.380737 762.020508,1445.324219 
z"/>
<path fill="#7E9E6E" opacity="1.000000" stroke="none" 
	d="
M771.172852,1398.021240 
	C782.054688,1394.918091 793.376892,1395.392334 804.608154,1395.806396 
	C850.122314,1397.484497 891.780396,1412.009155 931.000000,1434.412354 
	C932.584229,1435.317261 934.181641,1436.199097 935.961060,1437.369141 
	C922.307129,1448.929443 906.051636,1450.256104 889.100159,1449.458496 
	C863.799194,1448.268188 842.994812,1435.742188 821.998901,1423.566528 
	C812.804932,1418.234741 803.653992,1412.826660 794.399353,1407.602417 
	C787.149475,1403.509521 779.455750,1400.429321 771.172852,1398.021240 
z"/>
<path fill="#7E9E6E" opacity="1.000000" stroke="none" 
	d="
M948.993896,1549.755615 
	C938.455750,1540.158447 928.699585,1529.472046 917.704407,1520.048462 
	C872.624756,1481.411743 821.738586,1454.066528 763.687012,1440.602539 
	C762.078918,1440.229614 760.408875,1440.123657 758.339478,1439.841553 
	C759.333313,1435.280518 763.253174,1435.213989 766.853760,1435.063843 
	C777.463562,1434.621948 787.681335,1437.143799 797.723816,1440.070190 
	C836.057983,1451.240723 872.191895,1467.023804 902.844116,1493.237549 
	C918.285034,1506.442993 932.391357,1521.087280 943.500183,1538.305176 
	C945.745605,1541.785400 948.082886,1545.252808 948.993896,1549.755615 
z"/>
<path fill="#7E9E6E" opacity="1.000000" stroke="none" 
	d="
M837.104675,1580.939453 
	C846.001160,1574.676392 856.233826,1571.807739 866.600952,1569.550415 
	C896.175110,1563.110840 923.765808,1567.526855 948.890564,1585.581787 
	C937.953064,1590.157959 926.324646,1591.988525 914.661072,1593.475220 
	C892.077820,1596.353271 869.825562,1595.304565 848.338745,1586.907471 
	C844.466675,1585.394165 840.650330,1583.733643 837.104675,1580.939453 
z"/>
<path fill="#7E9E6E" opacity="1.000000" stroke="none" 
	d="
M950.908447,1580.776855 
	C940.341980,1574.865479 929.663452,1568.920410 917.593689,1565.977295 
	C889.675720,1559.169800 863.020813,1563.222168 837.260742,1575.176270 
	C836.511536,1575.524048 835.750732,1575.846924 834.634521,1576.205078 
	C834.377625,1572.206055 837.299927,1570.050171 840.096069,1568.078613 
	C856.209595,1556.715942 874.467590,1552.145020 893.896545,1550.794800 
	C914.160828,1549.386475 930.360901,1557.461548 944.461182,1571.055542 
	C947.229126,1573.724121 949.472412,1576.814087 950.908447,1580.776855 
z"/>
<path fill="#FDFEFD" opacity="1.000000" stroke="none" 
	d="
M1403.890625,519.269287 
	C1406.461548,517.804932 1407.121216,515.226685 1408.809814,513.023743 
	C1414.190186,516.036499 1418.214478,520.791931 1423.608765,523.803894 
	C1436.096802,530.776550 1449.212769,534.521851 1464.019409,532.077271 
	C1467.211060,533.294312 1466.086060,536.019470 1466.618042,538.099365 
	C1467.066528,539.853027 1467.285645,541.671143 1467.738281,543.835815 
	C1467.892090,544.545532 1467.958374,544.872253 1467.999390,545.202393 
	C1469.241821,555.205139 1470.769775,556.210999 1480.938477,554.195618 
	C1494.768921,551.454529 1506.388550,544.567078 1516.537842,535.088684 
	C1522.979858,529.072571 1529.254517,522.850220 1534.441162,515.650818 
	C1535.221802,514.567383 1536.116455,513.576111 1537.713867,512.887451 
	C1546.328369,518.436340 1554.578979,524.066406 1562.807739,530.041870 
	C1554.913330,550.595398 1541.696655,566.425781 1523.359741,577.891724 
	C1515.884033,582.566101 1508.000122,586.473389 1499.185913,588.206116 
	C1482.835938,591.420166 1470.043823,586.122803 1461.347778,571.824768 
	C1459.205811,568.303223 1457.323242,567.298767 1453.429688,568.911438 
	C1449.143066,570.686890 1444.480713,571.498169 1439.830933,571.782959 
	C1428.248291,572.492554 1421.770630,565.146179 1423.340454,553.660950 
	C1424.427124,545.710266 1427.048584,538.240662 1430.365967,530.077332 
	C1421.634033,531.292908 1413.690186,532.558594 1405.704956,533.454773 
	C1400.293335,534.062134 1394.941040,535.627075 1389.143066,534.478943 
	C1393.834961,529.291809 1398.790283,524.433044 1403.890625,519.269287 
z"/>
<path fill="#0E0806" opacity="1.000000" stroke="none" 
	d="
M1304.783936,634.646240 
	C1273.361938,670.579529 1239.082031,703.122742 1198.602661,728.606995 
	C1196.539307,729.906006 1193.594971,733.634583 1191.566895,730.274963 
	C1189.637939,727.079468 1194.343506,726.527283 1196.279541,725.296265 
	C1231.347656,702.999573 1261.796631,675.329651 1290.090942,645.117798 
	C1294.166748,640.765808 1297.666992,635.860840 1302.756348,632.067078 
	C1303.620483,632.776428 1304.151367,633.574280 1304.783936,634.646240 
z"/>
<path fill="#EEEEEE" opacity="1.000000" stroke="none" 
	d="
M1576.435425,418.776001 
	C1591.751099,460.614563 1605.369141,502.696442 1617.604492,545.605286 
	C1616.082886,545.484253 1614.446533,545.017822 1612.520264,544.418091 
	C1603.359131,514.210999 1594.500122,484.133545 1585.610474,454.065277 
	C1582.223511,442.609192 1578.765747,431.174072 1575.240479,419.309753 
	C1575.430420,418.796722 1575.720215,418.703400 1576.435425,418.776001 
z"/>
<path fill="#0E0806" opacity="1.000000" stroke="none" 
	d="
M1370.326416,549.110168 
	C1364.130859,549.119263 1359.395996,546.885437 1356.191650,541.868591 
	C1355.425171,540.668701 1354.308838,539.188782 1356.014771,537.940857 
	C1357.728149,536.687317 1358.829102,538.009521 1359.553711,539.347839 
	C1362.542358,544.866821 1368.181396,544.506409 1373.386841,545.814087 
	C1373.634155,547.996948 1372.513550,548.866211 1370.326416,549.110168 
z"/>
<path fill="#07080F" opacity="1.000000" stroke="none" 
	d="
M1117.937256,645.115723 
	C1115.494141,631.108887 1129.635986,621.357483 1141.512329,627.354492 
	C1147.873047,630.566223 1151.416382,637.470032 1150.305054,644.269836 
	C1149.084595,651.737427 1143.598877,657.326233 1136.671021,658.159912 
	C1128.792603,659.107971 1122.258789,655.642334 1119.110840,648.792114 
	C1118.629028,647.743774 1118.351562,646.601624 1117.937256,645.115723 
z"/>
<path fill="#07080F" opacity="1.000000" stroke="none" 
	d="
M1064.119141,645.392700 
	C1062.204834,633.366516 1071.393799,624.916992 1081.264282,625.629822 
	C1089.773071,626.244263 1095.934570,632.386475 1096.743286,641.046570 
	C1097.401367,648.096069 1092.076416,655.762146 1085.123535,657.774719 
	C1077.318604,660.033875 1068.947266,656.368469 1065.370483,649.077881 
	C1064.863281,648.043945 1064.580078,646.900085 1064.119141,645.392700 
z"/>
<path fill="#07080F" opacity="1.000000" stroke="none" 
	d="
M1009.998169,641.161560 
	C1011.925964,630.860962 1018.523071,625.044373 1027.232056,625.558655 
	C1035.474487,626.045471 1042.015503,632.220886 1042.846802,640.300720 
	C1043.762573,649.201172 1037.188354,657.456116 1028.596558,658.194092 
	C1017.879456,659.114624 1010.804993,652.802490 1009.998169,641.161560 
z"/>
<path fill="#0C0F0A" opacity="1.000000" stroke="none" 
	d="
M1056.204102,297.000702 
	C1056.073975,313.139771 1056.032104,328.780884 1055.681763,344.415039 
	C1055.645630,346.027222 1057.135742,349.546875 1053.504761,349.402679 
	C1050.311279,349.275909 1051.962524,346.263794 1051.858887,344.621338 
	C1050.275269,319.524994 1051.506348,294.396820 1051.144653,269.284088 
	C1051.119995,267.573242 1050.504272,265.498932 1053.522705,265.404541 
	C1057.079224,265.293304 1055.962646,267.834564 1055.988525,269.545410 
	C1056.124634,278.529541 1056.144043,287.515442 1056.204102,297.000702 
z"/>
<path fill="#07080F" opacity="1.000000" stroke="none" 
	d="
M1047.177734,388.123230 
	C1047.933838,383.622681 1049.881592,380.957764 1054.559937,381.815918 
	C1058.632568,382.563049 1059.127197,385.745178 1058.907593,388.999634 
	C1058.691772,392.198700 1057.300049,394.776794 1053.578003,394.999939 
	C1049.018921,395.273193 1047.615601,392.340607 1047.177734,388.123230 
z"/>
<path fill="#BA6F4D" opacity="1.000000" stroke="none" 
	d="
M1538.074707,512.374268 
	C1527.026123,527.988831 1514.362549,541.422668 1497.339355,550.059570 
	C1490.154785,553.704651 1482.528564,555.624084 1474.439453,556.064941 
	C1469.721069,556.322083 1467.260620,554.770203 1467.220947,549.896179 
	C1467.210083,548.575073 1466.959839,547.255981 1466.843262,545.512817 
	C1467.525513,544.001770 1468.663574,543.645386 1469.757202,543.287415 
	C1480.049805,539.918762 1487.221924,532.653076 1493.342529,524.189819 
	C1502.765503,511.159760 1508.784790,496.362915 1515.028076,481.695374 
	C1517.104126,476.817841 1518.848755,471.796326 1521.672852,466.877228 
	C1526.334229,466.604248 1530.676270,468.480347 1535.427734,467.014008 
	C1536.540283,482.086243 1537.306030,497.014221 1538.074707,512.374268 
z"/>
<path fill="#FDFEFD" opacity="1.000000" stroke="none" 
	d="
M1536.064453,466.933472 
	C1531.526001,469.546295 1527.312988,469.731079 1522.796143,466.868164 
	C1521.487183,466.942993 1521.029297,466.367950 1520.774292,465.214417 
	C1517.879639,460.417542 1517.474731,455.890472 1520.585571,451.429443 
	C1523.346191,447.470428 1527.424561,446.144409 1531.966797,447.113892 
	C1537.280273,448.248047 1540.031982,451.965027 1540.789307,457.648743 
	C1540.140259,461.296112 1539.275146,464.540070 1536.064453,466.933472 
z"/>
<path fill="#9EC68A" opacity="1.000000" stroke="none" 
	d="
M1576.857910,418.578735 
	C1576.574463,418.929321 1576.287964,418.916748 1575.571045,418.897095 
	C1573.647827,414.120972 1572.155029,409.351929 1570.662231,404.582855 
	C1570.995239,404.473297 1571.328369,404.363770 1571.661499,404.254211 
	C1573.392700,408.907990 1575.123901,413.561768 1576.857910,418.578735 
z"/>
<path fill="#060706" opacity="1.000000" stroke="none" 
	d="
M1520.553223,465.026733 
	C1521.282471,465.293213 1521.718628,465.757843 1522.299561,466.502258 
	C1515.049805,483.776215 1508.808228,501.295074 1499.296265,517.324219 
	C1495.037964,524.500122 1490.162964,531.174438 1483.849365,536.678345 
	C1479.155396,540.770447 1473.789917,543.659546 1467.253906,545.024170 
	C1465.240234,541.197205 1465.462769,536.922668 1464.382080,532.480530 
	C1486.561890,526.434998 1498.903809,510.079956 1509.046265,491.314301 
	C1513.565063,482.953461 1516.700806,473.998138 1520.553223,465.026733 
z"/>
<path fill="#0E0806" opacity="1.000000" stroke="none" 
	d="
M1533.371704,444.988281 
	C1531.088867,444.421234 1530.438965,443.131012 1531.337769,441.530914 
	C1533.552979,437.586914 1532.332886,434.134552 1530.069092,430.810944 
	C1529.025513,429.279022 1528.955566,427.923340 1529.666138,426.168884 
	C1533.706055,416.191681 1542.486572,412.261780 1550.223999,417.187653 
	C1551.781616,418.179321 1554.414795,419.210785 1552.839111,421.675598 
	C1551.279541,424.115234 1549.712891,421.621033 1548.234863,420.924408 
	C1547.347656,420.506226 1546.577393,419.786743 1545.119995,420.198914 
	C1545.779297,422.332153 1546.544678,424.445404 1547.061279,426.617828 
	C1547.368286,427.908447 1547.422241,429.483124 1545.659058,429.842987 
	C1544.294678,430.121429 1543.572144,429.086212 1543.199463,427.870819 
	C1543.053101,427.393616 1543.066406,426.826935 1542.807495,426.431549 
	C1541.565430,424.534546 1541.825562,421.004150 1538.516602,421.309570 
	C1535.931030,421.548279 1533.682495,427.696655 1534.756836,430.412323 
	C1535.428101,432.109436 1536.161011,433.808472 1536.570435,435.575165 
	C1536.937500,437.158295 1536.900269,438.835114 1537.049072,440.560486 
	C1539.348633,440.782349 1540.808105,439.549377 1542.135376,438.030365 
	C1543.129272,436.892670 1544.384155,436.292938 1545.550171,437.519958 
	C1546.693359,438.723022 1545.891113,440.022614 1545.031860,441.089630 
	C1542.111816,444.716064 1538.184692,445.542053 1533.371704,444.988281 
z"/>
<path fill="#060706" opacity="1.000000" stroke="none" 
	d="
M1474.763916,488.086548 
	C1477.671997,489.301758 1480.159546,490.491486 1482.542603,493.165588 
	C1473.533203,496.320587 1465.160400,499.252625 1456.624390,502.241882 
	C1457.625000,492.647644 1465.643311,486.384094 1474.763916,488.086548 
z"/>
<path fill="#0E0806" opacity="1.000000" stroke="none" 
	d="
M1459.448853,394.312164 
	C1462.968384,399.126465 1467.741943,400.007294 1472.881836,400.030914 
	C1474.459473,400.038177 1476.682373,399.465393 1476.810913,401.830627 
	C1476.967285,404.704590 1474.388550,403.985687 1472.755615,404.054108 
	C1461.765625,404.514526 1454.452881,398.875916 1453.361084,389.120544 
	C1453.170166,387.415222 1452.453491,385.073975 1455.154785,384.756989 
	C1457.593994,384.470764 1457.322876,386.838287 1457.616699,388.308380 
	C1458.005981,390.257111 1458.118286,392.257538 1459.448853,394.312164 
z"/>
<path fill="#060706" opacity="1.000000" stroke="none" 
	d="
M1456.506592,430.892670 
	C1456.776123,432.083069 1456.990601,432.907410 1456.978516,433.728363 
	C1456.927246,437.191833 1456.401245,440.686920 1452.570679,441.804504 
	C1449.791992,442.615143 1448.463867,440.270538 1447.574829,437.983124 
	C1446.080566,434.138458 1447.269409,428.408295 1450.030151,427.095764 
	C1453.518921,425.436981 1455.288330,427.445709 1456.506592,430.892670 
z"/>
<path fill="#0E0806" opacity="1.000000" stroke="none" 
	d="
M1406.625977,404.734650 
	C1400.193848,408.796204 1394.733765,408.673340 1389.770142,404.594818 
	C1388.730469,403.740479 1387.488525,402.843567 1388.372192,401.308960 
	C1389.414917,399.497925 1390.740479,400.275024 1392.185669,401.033600 
	C1400.221680,405.251892 1402.386353,404.584656 1407.391968,396.557404 
	C1408.153809,395.335449 1408.665771,393.476135 1410.659790,394.515686 
	C1412.445435,395.446533 1411.874146,396.987823 1411.184326,398.415405 
	C1410.091309,400.677521 1408.798096,402.796448 1406.625977,404.734650 
z"/>
<path fill="#0E0806" opacity="1.000000" stroke="none" 
	d="
M1408.716187,462.149841 
	C1410.270264,463.826660 1411.877930,464.691010 1413.740967,464.937897 
	C1415.325439,465.147858 1416.325806,465.850586 1416.017456,467.503113 
	C1415.676880,469.328583 1414.064209,469.162811 1412.802612,468.960724 
	C1408.339722,468.245667 1405.167603,465.861847 1403.742310,461.438965 
	C1402.247925,456.801788 1402.985718,452.551666 1406.096558,448.792847 
	C1406.924194,447.792847 1408.110962,447.552917 1409.203247,448.439667 
	C1410.411987,449.421112 1409.887451,450.515106 1409.171387,451.520081 
	C1406.817505,454.823975 1406.543335,458.257904 1408.716187,462.149841 
z"/>
<path fill="#0E0806" opacity="1.000000" stroke="none" 
	d="
M1392.305054,438.075378 
	C1392.078735,435.571991 1391.786743,433.411652 1392.029419,431.313232 
	C1392.287109,429.085754 1393.407227,426.995880 1396.018555,427.078430 
	C1399.079224,427.175171 1399.996094,429.761566 1400.535522,432.196716 
	C1401.282593,435.568756 1400.993408,439.042297 1397.883301,441.053284 
	C1395.319214,442.711304 1393.672241,440.612457 1392.305054,438.075378 
z"/>
<path fill="#16182C" opacity="1.000000" stroke="none" 
	d="
M901.656250,865.880981 
	C898.722107,867.343262 895.968445,867.745972 893.089966,867.744385 
	C851.424255,867.721130 809.758484,867.753296 768.092834,867.704956 
	C757.940857,867.693176 751.756958,860.733398 753.853455,851.954834 
	C755.306946,845.868286 760.246887,842.356323 767.800354,842.287109 
	C776.966003,842.203064 786.133057,842.272644 795.299500,842.273193 
	C827.798767,842.275146 860.298035,842.291016 892.797302,842.263916 
	C898.900391,842.258850 904.040283,843.970703 906.771118,849.910278 
	C909.379883,855.584412 907.691772,860.879028 901.656250,865.880981 
z"/>
<path fill="#07080F" opacity="1.000000" stroke="none" 
	d="
M553.616272,975.408936 
	C550.583618,971.499878 547.777222,967.868835 544.086914,963.094116 
	C545.293396,976.667847 544.769958,988.747498 544.863647,1000.821167 
	C544.878296,1002.707947 545.528931,1004.857666 542.194397,1004.945557 
	C538.668762,1005.038574 539.107666,1002.859314 539.108948,1000.688354 
	C539.117432,986.533691 539.081543,972.378845 539.166016,958.224670 
	C539.174683,956.787292 538.110840,954.577881 540.562805,954.070251 
	C542.711548,953.625427 544.557495,954.005371 546.146606,956.156494 
	C555.045654,968.202637 564.137451,980.106384 573.168701,992.054810 
	C573.833374,992.934143 574.539001,993.782593 575.749146,995.303528 
	C575.749146,982.244934 575.742737,970.033691 575.755798,957.822388 
	C575.757812,955.922607 575.106445,953.644897 578.503906,953.929077 
	C580.266357,954.076538 581.228943,954.327698 581.221130,956.401855 
	C581.163574,971.721619 581.195679,987.041809 581.189087,1002.361816 
	C581.188599,1003.532104 581.235168,1004.714355 579.537537,1004.875305 
	C577.398987,1005.078186 575.746216,1004.605286 574.366150,1002.730835 
	C570.025085,996.834961 565.529907,991.052612 561.095581,985.225464 
	C558.676636,982.046814 556.260132,978.866516 553.616272,975.408936 
z"/>
<path fill="#07080F" opacity="1.000000" stroke="none" 
	d="
M698.587524,963.477539 
	C703.922424,971.538147 704.488647,979.993774 701.912170,988.620667 
	C699.011902,998.331665 690.960632,1004.392029 680.823242,1004.820618 
	C675.177063,1005.059326 669.510864,1004.787781 663.858276,1004.929504 
	C661.330627,1004.992859 660.318237,1004.228210 660.336548,1001.553528 
	C660.438171,986.748901 660.457275,971.942749 660.345703,957.138367 
	C660.324341,954.303162 661.550415,953.872742 663.947510,953.934448 
	C669.100952,954.067200 674.260254,953.973694 679.417114,953.973877 
	C687.227417,953.974243 693.633911,956.859253 698.587524,963.477539 
z"/>
<path fill="#07080F" opacity="1.000000" stroke="none" 
	d="
M732.007080,966.719727 
	C735.648132,967.440613 737.791382,969.866333 740.222229,971.747803 
	C741.391724,971.280518 741.110718,970.280396 741.054138,969.601318 
	C740.854065,967.198792 742.197998,966.987183 744.118469,966.928040 
	C746.373169,966.858704 746.927246,967.827026 746.912598,969.890320 
	C746.843018,979.702576 746.992737,989.517822 746.789856,999.326355 
	C746.749207,1001.294250 748.684875,1004.652283 744.177429,1004.911011 
	C739.655823,1005.170593 741.686340,1001.642456 740.723267,999.179871 
	C737.193665,1002.625244 733.268250,1005.140320 728.349304,1005.496582 
	C723.425903,1005.853149 719.156738,1004.199341 715.564148,1000.968872 
	C709.270447,995.309692 707.617493,984.179443 711.704895,976.058350 
	C715.586914,968.345154 722.417175,965.101196 732.007080,966.719727 
z"/>
<path fill="#07080F" opacity="1.000000" stroke="none" 
	d="
M799.766846,966.093140 
	C804.661194,966.489685 808.315552,968.586243 811.719421,972.187744 
	C812.042175,971.049561 812.383850,970.465088 812.333191,969.916931 
	C812.099915,967.395691 813.379456,966.942993 815.613220,966.914062 
	C818.237671,966.880127 818.036560,968.448486 818.034668,970.152161 
	C818.023132,980.620667 818.033325,991.089111 818.026001,1001.557617 
	C818.024841,1003.183533 818.389893,1004.932190 815.709595,1004.927185 
	C813.525269,1004.923096 812.128235,1004.540100 812.361877,1001.959045 
	C812.431885,1001.185547 812.209595,1000.385498 812.106934,999.470032 
	C802.590088,1006.515747 795.783936,1007.378052 788.829590,1002.544983 
	C781.970337,997.777893 779.001648,988.157959 781.673035,979.354004 
	C784.231079,970.923584 790.181458,966.451843 799.766846,966.093140 
z"/>
<path fill="#07080F" opacity="1.000000" stroke="none" 
	d="
M625.034607,971.981506 
	C631.011658,979.899353 631.793335,988.903320 627.367065,996.403992 
	C623.402832,1003.121704 615.960754,1006.490051 607.789185,1005.265015 
	C599.481995,1004.019653 593.718567,998.805298 591.921448,990.909241 
	C589.935669,982.184265 592.882751,973.891663 599.590454,969.330566 
	C606.150574,964.869629 615.618103,964.931091 622.098938,969.506470 
	C623.044800,970.174255 623.900757,970.969360 625.034607,971.981506 
z"/>
<path fill="#07080F" opacity="1.000000" stroke="none" 
	d="
M767.883667,991.985718 
	C767.883240,995.473511 767.822937,998.465576 767.903015,1001.453979 
	C767.958130,1003.509399 767.756775,1004.942505 765.056702,1004.942078 
	C762.474060,1004.941589 762.068848,1003.733826 762.087769,1001.567749 
	C762.160461,993.261353 761.955383,984.949341 762.193298,976.649170 
	C762.292725,973.182251 761.250244,971.864990 757.757263,972.126526 
	C756.123535,972.248840 753.713440,973.313110 753.681824,969.680054 
	C753.652100,966.277588 755.736267,966.724670 757.548340,967.030212 
	C761.956604,967.773682 762.359192,965.395813 762.200684,961.946838 
	C762.127136,960.346802 761.045898,957.912231 763.359314,957.185364 
	C765.941589,956.373901 768.555786,956.609863 767.876099,960.579529 
	C767.019775,965.580933 768.718933,967.968140 774.084229,967.003845 
	C775.839172,966.688477 777.225647,966.935120 777.262817,969.466797 
	C777.303284,972.222473 775.809448,972.596924 773.827881,972.221497 
	C768.432434,971.199158 767.398804,973.831726 767.805054,978.536316 
	C768.175232,982.823975 767.883606,987.168823 767.883667,991.985718 
z"/>
<path fill="#7482ED" opacity="1.000000" stroke="none" 
	d="
M1127.133667,631.863770 
	C1134.046143,628.398193 1140.152222,629.527649 1143.937256,634.694641 
	C1147.544189,639.618225 1147.016235,646.327637 1142.681641,650.651978 
	C1138.376587,654.946899 1131.640869,655.445129 1126.707520,651.833496 
	C1120.193726,647.065002 1120.237915,638.322327 1127.133667,631.863770 
z"/>
<path fill="#7482ED" opacity="1.000000" stroke="none" 
	d="
M1088.210938,651.339722 
	C1080.310669,656.145020 1072.649536,654.401978 1069.213745,647.347778 
	C1066.103149,640.961182 1068.907349,633.556213 1075.513550,630.712158 
	C1080.699463,628.479675 1086.808960,630.174377 1090.192993,634.784180 
	C1093.866211,639.787903 1093.266113,645.552124 1088.210938,651.339722 
z"/>
<path fill="#7482ED" opacity="1.000000" stroke="none" 
	d="
M1016.583496,634.747925 
	C1022.965881,628.417603 1030.412476,628.126343 1035.518433,633.730408 
	C1040.311768,638.991394 1039.781128,646.773010 1034.313599,651.400146 
	C1029.942261,655.099487 1023.146912,655.151184 1018.756653,651.518311 
	C1013.752808,647.377563 1012.915039,641.679688 1016.583496,634.747925 
z"/>
<path fill="#7684F1" opacity="1.000000" stroke="none" 
	d="
M805.000000,846.721619 
	C834.131409,846.721863 862.762756,846.722107 891.394165,846.723083 
	C892.392883,846.723145 893.393616,846.689392 894.389893,846.740723 
	C899.987244,847.029236 903.669739,850.460999 903.521118,855.224365 
	C903.376343,859.866333 899.861084,863.197144 894.458191,863.206177 
	C851.844360,863.277161 809.230225,863.289856 766.616394,863.223755 
	C761.240479,863.215454 757.829712,859.772217 757.813660,855.050720 
	C757.797485,850.321228 761.165161,846.870544 766.547852,846.800598 
	C779.196777,846.636108 791.849060,846.731567 805.000000,846.721619 
z"/>
<path fill="#7684F1" opacity="1.000000" stroke="none" 
	d="
M696.286987,986.806641 
	C693.003906,995.548950 686.900757,999.229309 678.060181,999.158813 
	C666.031860,999.062866 666.030823,999.191223 666.030762,987.025452 
	C666.030762,979.543945 666.311890,972.047729 665.923523,964.586426 
	C665.696899,960.232971 667.233093,959.033142 671.237610,959.555847 
	C673.363037,959.833252 675.554016,959.595947 677.715210,959.614014 
	C690.397827,959.720093 697.795288,967.367981 697.362671,980.048279 
	C697.289856,982.182129 696.759033,984.300354 696.286987,986.806641 
z"/>
<path fill="#7482ED" opacity="1.000000" stroke="none" 
	d="
M740.981995,989.394226 
	C738.161499,997.698792 733.346375,1001.030212 726.169128,1000.024841 
	C719.836121,999.137817 715.289001,993.362366 715.189697,986.079834 
	C715.087708,978.607483 719.376465,972.847839 726.064453,971.474915 
	C732.852600,970.081482 739.693848,974.898987 740.993774,982.058533 
	C741.408691,984.343689 741.554504,986.664795 740.981995,989.394226 
z"/>
<path fill="#7482ED" opacity="1.000000" stroke="none" 
	d="
M805.804565,972.930176 
	C812.348633,978.029907 814.231506,984.353394 811.661865,991.616821 
	C808.444092,1000.712280 796.689514,1003.213867 790.205200,996.183105 
	C785.915527,991.532104 785.295105,982.601562 788.881897,977.137512 
	C792.527344,971.583923 798.145508,970.101379 805.804565,972.930176 
z"/>
<path fill="#7482ED" opacity="1.000000" stroke="none" 
	d="
M623.795959,980.846619 
	C624.232666,983.547852 624.539307,985.827148 624.200745,988.178345 
	C623.195068,995.163269 618.345337,999.859070 611.723450,1000.122131 
	C604.092102,1000.425232 598.580811,996.074097 597.226746,988.677307 
	C595.929504,981.590881 599.466492,974.532043 605.461914,972.242065 
	C612.231995,969.656189 619.079651,972.012390 622.647888,978.181702 
	C623.061096,978.896057 623.338379,979.689209 623.795959,980.846619 
z"/>
</svg>